<?xml version="1.0" encoding="UTF-8"?>
<!-- Generator: Adobe Illustrator 21.1.0, SVG Export Plug-In . SVG Version: 6.00 Build 0)  -->
<svg enable-background="new 0 0 150 150" version="1.1" viewBox="0 0 150 150" xml:space="preserve" xmlns="http://www.w3.org/2000/svg" xmlns:cc="http://creativecommons.org/ns#" xmlns:dc="http://purl.org/dc/elements/1.1/" xmlns:rdf="http://www.w3.org/1999/02/22-rdf-syntax-ns#"><metadata><rdf:RDF><cc:Work rdf:about=""><dc:format>image/svg+xml</dc:format><dc:type rdf:resource="http://purl.org/dc/dcmitype/StillImage"/><dc:title/></cc:Work></rdf:RDF></metadata>
<style type="text/css">
	.st0{fill:#AC1E23;}
	.st1{fill:#89181A;}
	.st2{fill:#751217;}
</style>
	<polygon class="st0" points="12 37.9 12 112 76.1 149 140.3 112 140.3 37.9 76.1 0.9"/>
	<polygon class="st0" points="76.1 113.1 44.1 57.7 108.1 57.7"/>
	<polygon class="st0" points="76.1 0.9 44.1 57.7 108.1 57.7"/>
	<polygon class="st1" points="140.3 37.9 108.1 57.7 76.1 0.9"/>
	<polygon class="st2" points="140.3 112 108.1 57.7 140.3 37.9"/>
	<polygon class="st2" points="12 112 76.1 113.1 76.1 149"/>
	<polygon class="st1" points="44.1 57.7 76.1 113.1 12 112"/>
	<polygon class="st2" points="12 37.9 44.1 57.7 12 112"/>
	<polygon class="st1" points="76.1 0.9 44.1 57.7 12 37.9"/>
	<polygon class="st1" points="108.1 57.7 140.3 112 76.1 113.1"/>
	<polygon class="st2" points="140.3 112 76.1 113.1 76.1 149"/>
</svg>
