<?xml version="1.0" encoding="utf-8"?>
<!-- Generator: Adobe Illustrator 21.1.0, SVG Export Plug-In . SVG Version: 6.00 Build 0)  -->
<svg version="1.1" id="Layer_1" xmlns="http://www.w3.org/2000/svg" xmlns:xlink="http://www.w3.org/1999/xlink" x="0px" y="0px"
	 viewBox="0 0 150 150" style="enable-background:new 0 0 150 150;" xml:space="preserve">
<style type="text/css">
	.st0{fill:#AC1E23;}
	.st1{fill:#89181A;}
	.st2{fill:#751217;}
</style>
<g>
	<polygon class="st0" points="12,37.9 12,112 76.1,149 140.3,112 140.3,37.9 76.1,0.9 	"/>
	<polygon class="st0" points="76.1,113.1 44.1,57.7 108.1,57.7 	"/>
	<polygon class="st0" points="76.1,0.9 44.1,57.7 108.1,57.7 	"/>
	<polygon class="st1" points="140.3,37.9 108.1,57.7 76.1,0.9 	"/>
	<polygon class="st2" points="140.3,112 108.1,57.7 140.3,37.9 	"/>
	<polygon class="st2" points="12,112 76.1,113.1 76.1,149 	"/>
	<polygon class="st1" points="44.1,57.7 76.1,113.1 12,112 	"/>
	<polygon class="st2" points="12,37.9 44.1,57.7 12,112 	"/>
	<polygon class="st1" points="76.1,0.9 44.1,57.7 12,37.9 	"/>
	<polygon class="st1" points="108.1,57.7 140.3,112 76.1,113.1 	"/>
	<polygon class="st2" points="140.3,112 76.1,113.1 76.1,149 	"/>
</g>
</svg>
